<svg width="512" height="512" viewBox="0 0 512 512" fill="none" xmlns="http://www.w3.org/2000/svg">
<path d="M0 65C0 29.1015 29.1015 0 65 0H447C482.898 0 512 29.1015 512 65V447C512 482.898 482.898 512 447 512H65C29.1015 512 0 482.898 0 447V65Z" fill="url(#paint0_linear_0_1)"/>
<path d="M131.381 231.94C131.034 230.033 129.864 229.08 127.871 229.08H104.211C104.124 231.593 104.037 234.107 103.951 236.62C103.951 239.047 103.951 241.517 103.951 244.03V259.37H119.031C121.024 259.37 122.151 258.373 122.411 256.38L123.191 250.92C123.451 248.927 124.621 247.93 126.701 247.93C128.867 247.93 129.951 249.013 129.951 251.18V275.1C129.951 277.267 128.911 278.35 126.831 278.35H126.701C124.707 278.35 123.581 277.353 123.321 275.36L122.281 268.73C122.021 266.737 120.894 265.74 118.901 265.74H103.951V282.25C103.951 284.417 103.951 286.583 103.951 288.75C104.037 290.83 104.081 292.91 104.081 294.99C104.167 296.983 105.207 298.11 107.201 298.37L112.531 298.89C114.611 299.15 115.651 300.233 115.651 302.14C115.651 304.047 114.567 305 112.401 305H81.0706C78.904 305 77.8206 304.047 77.8206 302.14C77.8206 300.233 78.8606 299.193 80.9406 299.02L85.6206 298.5C87.614 298.24 88.654 297.113 88.7406 295.12C88.7406 293.04 88.7406 290.96 88.7406 288.88C88.8273 286.713 88.8706 284.547 88.8706 282.38V245.2C88.8706 243.033 88.8273 240.91 88.7406 238.83C88.7406 236.663 88.7406 234.497 88.7406 232.33C88.5673 230.337 87.5273 229.21 85.6206 228.95L80.9406 228.43C78.8606 228.17 77.8206 227.13 77.8206 225.31C77.8206 223.403 78.904 222.45 81.0706 222.45H137.881C139.961 222.45 141.044 223.49 141.131 225.57L141.781 241.04C141.954 243.293 140.871 244.42 138.531 244.42H136.711C134.717 244.42 133.547 243.467 133.201 241.56L131.381 231.94ZM172.671 295.64C172.758 297.46 173.754 298.587 175.661 299.02L177.871 299.41C179.778 299.843 180.731 300.883 180.731 302.53C180.731 304.177 179.648 305 177.481 305H153.561C151.394 305 150.311 304.177 150.311 302.53C150.311 300.97 151.308 299.973 153.301 299.54L155.901 299.02C157.808 298.587 158.804 297.46 158.891 295.64V272.63C158.891 270.897 158.891 269.337 158.891 267.95C158.891 266.563 158.848 265.263 158.761 264.05C158.674 263.357 158.631 262.663 158.631 261.97C158.631 261.277 158.631 260.583 158.631 259.89C158.458 257.897 157.418 256.77 155.511 256.51L152.391 256.12C150.398 255.86 149.401 254.95 149.401 253.39C149.401 252.003 150.268 250.963 152.001 250.27L168.901 244.16C169.334 243.987 169.724 243.857 170.071 243.77C170.418 243.683 170.764 243.64 171.111 243.64C171.544 243.64 171.891 243.77 172.151 244.03C172.758 244.55 173.061 245.59 173.061 247.15L172.671 261.97V295.64ZM165.651 231.42C162.878 231.42 160.581 230.597 158.761 228.95C157.028 227.303 156.161 225.137 156.161 222.45C156.161 219.763 157.028 217.597 158.761 215.95C160.581 214.303 162.878 213.48 165.651 213.48C168.338 213.48 170.548 214.303 172.281 215.95C174.101 217.597 175.011 219.763 175.011 222.45C175.011 225.137 174.101 227.303 172.281 228.95C170.548 230.597 168.338 231.42 165.651 231.42ZM249.11 295.64C249.197 297.46 250.193 298.587 252.1 299.02L254.31 299.41C256.217 299.843 257.17 300.883 257.17 302.53C257.17 304.177 256.087 305 253.92 305H230C227.833 305 226.75 304.177 226.75 302.53C226.75 300.883 227.703 299.887 229.61 299.54L232.21 299.02C234.117 298.587 235.113 297.46 235.2 295.64V267.3C235.2 262.1 234.55 258.417 233.25 256.25C232.037 253.997 229.783 252.87 226.49 252.87C223.803 252.87 221.203 253.52 218.69 254.82C216.263 256.12 213.663 258.07 210.89 260.67V295.64C210.977 297.46 211.973 298.587 213.88 299.02L216.22 299.54C218.127 299.887 219.08 300.883 219.08 302.53C219.08 304.177 217.997 305 215.83 305H191.65C189.483 305 188.4 304.177 188.4 302.53C188.4 300.97 189.397 299.973 191.39 299.54L194.12 299.02C196.027 298.587 197.023 297.46 197.11 295.64V272.11C197.11 270.377 197.11 268.817 197.11 267.43C197.11 266.043 197.067 264.83 196.98 263.79C196.893 263.097 196.85 262.447 196.85 261.84C196.85 261.233 196.85 260.583 196.85 259.89C196.677 257.897 195.637 256.77 193.73 256.51L190.61 256.12C188.617 255.86 187.62 254.95 187.62 253.39C187.62 251.917 188.487 250.833 190.22 250.14L205.3 244.29C206.08 243.943 206.86 243.77 207.64 243.77C208.16 243.77 208.507 243.857 208.68 244.03C209.373 244.463 209.763 245.46 209.85 247.02L210.5 254.69C213.793 250.877 217.13 248.06 220.51 246.24C223.89 244.333 227.703 243.38 231.95 243.38C237.67 243.38 241.96 245.157 244.82 248.71C247.68 252.177 249.11 257.897 249.11 265.87V295.64ZM321.5 295.51C321.5 297.417 322.496 298.587 324.49 299.02L327.22 299.54C329.213 299.973 330.21 300.97 330.21 302.53C330.21 304.09 329.17 304.957 327.09 305.13L312.27 306.04C310.19 306.04 309.02 305.087 308.76 303.18L308.24 298.5C305.726 301.273 303.083 303.397 300.31 304.87C297.536 306.257 294.2 306.95 290.3 306.95C285.966 306.95 282.196 306.04 278.99 304.22C275.87 302.4 273.27 300.017 271.19 297.07C269.196 294.123 267.68 290.787 266.64 287.06C265.686 283.333 265.21 279.52 265.21 275.62C265.21 271.633 265.773 267.733 266.9 263.92C268.026 260.02 269.673 256.553 271.84 253.52C274.093 250.487 276.866 248.06 280.16 246.24C283.54 244.333 287.44 243.38 291.86 243.38C298.36 243.38 303.863 245.893 308.37 250.92V229.34C308.37 227.26 307.373 226.09 305.38 225.83L300.96 225.31C298.966 225.05 297.97 224.14 297.97 222.58C297.97 221.02 298.923 219.98 300.83 219.46L317.99 215.04C318.423 214.867 318.77 214.78 319.03 214.78C319.376 214.78 319.723 214.78 320.07 214.78C320.676 214.78 321.066 214.867 321.24 215.04C321.673 215.387 321.89 216.427 321.89 218.16L321.5 233.24V295.51ZM307.72 293.17V256.9C303.213 253.433 299.183 251.7 295.63 251.7C292.596 251.7 290.04 252.48 287.96 254.04C285.966 255.513 284.363 257.42 283.15 259.76C282.023 262.1 281.2 264.657 280.68 267.43C280.246 270.203 280.03 272.803 280.03 275.23C280.03 283.203 281.46 289.097 284.32 292.91C287.18 296.637 290.82 298.5 295.24 298.5C299.313 298.5 303.473 296.723 307.72 293.17ZM363.313 267.82L367.473 269.25C370.679 270.463 373.323 271.763 375.403 273.15C377.569 274.45 379.346 275.837 380.733 277.31C381.946 278.87 382.813 280.56 383.333 282.38C383.853 284.113 384.113 285.977 384.113 287.97C384.113 291.437 383.333 294.383 381.773 296.81C380.299 299.15 378.349 301.1 375.923 302.66C373.496 304.133 370.766 305.217 367.733 305.91C364.786 306.603 361.839 306.95 358.893 306.95C355.253 306.95 352.046 306.56 349.273 305.78C346.499 305.087 343.726 304.047 340.953 302.66C339.393 301.967 338.613 300.71 338.613 298.89L338.483 290.7C338.483 288.533 339.523 287.45 341.603 287.45H343.683C345.589 287.45 346.759 288.447 347.193 290.44L348.233 295.9C348.493 297.633 349.403 298.76 350.963 299.28C353.563 300.32 356.249 300.84 359.023 300.84C363.443 300.84 366.649 300.06 368.643 298.5C370.636 296.94 371.633 294.773 371.633 292C371.633 289.487 370.766 287.537 369.033 286.15C367.299 284.677 364.223 283.073 359.803 281.34L354.083 279.26C349.229 277.267 345.503 274.883 342.903 272.11C340.303 269.337 339.003 265.783 339.003 261.45C339.003 258.157 339.696 255.383 341.083 253.13C342.469 250.877 344.289 249.013 346.543 247.54C348.796 246.067 351.309 245.027 354.083 244.42C356.856 243.727 359.673 243.38 362.533 243.38C365.566 243.38 368.339 243.727 370.853 244.42C373.366 245.027 375.879 245.937 378.393 247.15C380.039 247.93 380.819 249.23 380.733 251.05L380.343 258.33C380.256 260.41 379.173 261.45 377.093 261.45H375.143C373.149 261.45 371.979 260.497 371.633 258.59L370.723 253.78C370.376 251.96 369.423 250.833 367.863 250.4C366.043 249.707 364.136 249.36 362.143 249.36C358.676 249.36 355.989 250.097 354.083 251.57C352.263 253.043 351.353 255.167 351.353 257.94C351.353 260.02 352.176 261.797 353.823 263.27C354.689 263.963 355.903 264.7 357.463 265.48C359.109 266.26 361.059 267.04 363.313 267.82ZM419.426 267.82L423.586 269.25C426.793 270.463 429.436 271.763 431.516 273.15C433.683 274.45 435.459 275.837 436.846 277.31C438.059 278.87 438.926 280.56 439.446 282.38C439.966 284.113 440.226 285.977 440.226 287.97C440.226 291.437 439.446 294.383 437.886 296.81C436.413 299.15 434.463 301.1 432.036 302.66C429.609 304.133 426.879 305.217 423.846 305.91C420.899 306.603 417.953 306.95 415.006 306.95C411.366 306.95 408.159 306.56 405.386 305.78C402.613 305.087 399.839 304.047 397.066 302.66C395.506 301.967 394.726 300.71 394.726 298.89L394.596 290.7C394.596 288.533 395.636 287.45 397.716 287.45H399.796C401.703 287.45 402.873 288.447 403.306 290.44L404.346 295.9C404.606 297.633 405.516 298.76 407.076 299.28C409.676 300.32 412.363 300.84 415.136 300.84C419.556 300.84 422.763 300.06 424.756 298.5C426.749 296.94 427.746 294.773 427.746 292C427.746 289.487 426.879 287.537 425.146 286.15C423.413 284.677 420.336 283.073 415.916 281.34L410.196 279.26C405.343 277.267 401.616 274.883 399.016 272.11C396.416 269.337 395.116 265.783 395.116 261.45C395.116 258.157 395.809 255.383 397.196 253.13C398.583 250.877 400.403 249.013 402.656 247.54C404.909 246.067 407.423 245.027 410.196 244.42C412.969 243.727 415.786 243.38 418.646 243.38C421.679 243.38 424.453 243.727 426.966 244.42C429.479 245.027 431.993 245.937 434.506 247.15C436.153 247.93 436.933 249.23 436.846 251.05L436.456 258.33C436.369 260.41 435.286 261.45 433.206 261.45H431.256C429.263 261.45 428.093 260.497 427.746 258.59L426.836 253.78C426.489 251.96 425.536 250.833 423.976 250.4C422.156 249.707 420.249 249.36 418.256 249.36C414.789 249.36 412.103 250.097 410.196 251.57C408.376 253.043 407.466 255.167 407.466 257.94C407.466 260.02 408.289 261.797 409.936 263.27C410.803 263.963 412.016 264.7 413.576 265.48C415.223 266.26 417.173 267.04 419.426 267.82Z" fill="white"/>
</svg>
